<?xml version="1.0" encoding="UTF-8" standalone="no"?>
<!-- Created with Inkscape (http://www.inkscape.org/) -->

<svg
   xmlns:dc="http://purl.org/dc/elements/1.1/"
   xmlns:cc="http://creativecommons.org/ns#"
   xmlns:rdf="http://www.w3.org/1999/02/22-rdf-syntax-ns#"
   xmlns:svg="http://www.w3.org/2000/svg"
   xmlns="http://www.w3.org/2000/svg"
   xmlns:sodipodi="http://sodipodi.sourceforge.net/DTD/sodipodi-0.dtd"
   xmlns:inkscape="http://www.inkscape.org/namespaces/inkscape"
   width="64px"
   height="64px"
   id="svg3005"
   version="1.1"
   inkscape:version="0.48.2 r9819"
   sodipodi:docname="New document 4">
  <defs
     id="defs3007" />
  <sodipodi:namedview
     id="base"
     pagecolor="#ffffff"
     bordercolor="#666666"
     borderopacity="1.0"
     inkscape:pageopacity="0.0"
     inkscape:pageshadow="2"
     inkscape:zoom="7.7781746"
     inkscape:cx="-0.79869636"
     inkscape:cy="33.235099"
     inkscape:current-layer="layer1"
     showgrid="true"
     inkscape:document-units="px"
     inkscape:grid-bbox="true"
     inkscape:window-width="1920"
     inkscape:window-height="1017"
     inkscape:window-x="892"
     inkscape:window-y="179"
     inkscape:window-maximized="1" />
  <metadata
     id="metadata3010">
    <rdf:RDF>
      <cc:Work
         rdf:about="">
        <dc:format>image/svg+xml</dc:format>
        <dc:type
           rdf:resource="http://purl.org/dc/dcmitype/StillImage" />
        <dc:title></dc:title>
      </cc:Work>
    </rdf:RDF>
  </metadata>
  <g
     id="layer1"
     inkscape:label="Layer 1"
     inkscape:groupmode="layer">
    <g
       id="g3847"
       transform="matrix(1.2214634,0,0,1.2214634,-5.5553145,-7.6738801)">
      <path
         sodipodi:nodetypes="cccsccsccscc"
         inkscape:connector-curvature="0"
         id="path3024"
         d="m 9.9545455,21.909091 6.1363635,-0.318182 -4.681818,20.227273 c 0,0 -0.483129,2.448053 0.165667,2.271573 C 12.86739,43.738144 14,41.363636 14,41.363636 l 0.954545,0.545455 c 0,0 -2.291599,4.378808 -4.52518,4.931143 C 6.5607236,47.796898 7.5454546,42.818182 7.5454546,42.818182 L 12,24.363636 c 0,0 0.347374,-0.979816 -0.09258,-1.196997 -0.351448,-0.173492 -1.9528785,-0.07573 -1.9528785,-0.07573 z"
         style="fill:#000000;fill-opacity:1;stroke:none" />
      <path
         transform="matrix(1.2702703,0,0,1.1481481,-6.4754304,-5.2794613)"
         d="m 25.136364,25.204546 c 0,1.016706 -0.752976,1.840909 -1.681818,1.840909 -0.928843,0 -1.681818,-0.824203 -1.681818,-1.840909 0,-1.016706 0.752975,-1.840909 1.681818,-1.840909 0.928842,0 1.681818,0.824203 1.681818,1.840909 z"
         sodipodi:ry="1.8409091"
         sodipodi:rx="1.6818181"
         sodipodi:cy="25.204546"
         sodipodi:cx="23.454546"
         id="path3026"
         style="fill:#000000;fill-opacity:1;fill-rule:evenodd;stroke:none"
         sodipodi:type="arc" />
      <path
         sodipodi:nodetypes="cccsccsccscc"
         inkscape:connector-curvature="0"
         id="path3796"
         d="M 17.590909,30.409091 23.681818,29.5 20.863636,42.681818 c 0,0 -0.317303,1.673095 0.24381,1.481194 1.006606,-0.344258 2.483463,-2.708467 2.483463,-2.708467 l 0.818182,0.5 c 0,0 -2.778334,5.159189 -5.226847,4.966171 -3.283618,-0.25885 -2.227699,-4.693443 -2.227699,-4.693443 l 2.409091,-9.045455 c 0,0 0.211627,-1.019817 -0.07926,-1.374996 -0.36971,-0.451428 -1.69347,-0.443186 -1.69347,-0.443186 z"
         style="fill:#000000;fill-opacity:1;stroke:none" />
      <path
         sodipodi:nodetypes="cccaasaaassccccaaassaaccc"
         inkscape:connector-curvature="0"
         id="path3798"
         d="m 36.833835,29.480333 -0.449977,5.592571 -0.899954,-0.128561 c 0,0 0.02813,-2.287104 -0.635351,-3.112263 -0.581973,-0.72379 -1.659033,-1.403757 -2.54663,-1.130379 -0.698963,0.21528 -1.241327,1.137695 -1.157083,1.864191 0.19507,1.682231 1.915099,3.153225 2.762034,4.790299 0.54184,1.047345 1.323365,2.044192 1.480606,3.212865 0.201253,1.495783 0.151091,3.249208 -0.740759,4.466776 -0.837891,1.143901 -2.373365,1.950555 -3.791152,1.929326 -2.041603,-0.03057 -2.087377,-1.198126 -3.345234,-0.831921 -0.247159,0.07196 -0.44743,0.735501 -0.44743,0.735501 l -0.80353,-0.06428 0.449976,-5.946125 0.964238,0.06428 c 0,0 0.167356,2.837355 1.059783,3.805643 0.495459,0.537575 1.333404,0.856137 2.057914,0.75841 0.598333,-0.08071 1.276911,-0.483158 1.47283,-1.054237 0.388773,-1.133218 -0.258702,-2.149832 -1.022854,-3.445534 -0.491274,-0.833009 -1.713301,-2.203397 -2.764143,-4.467629 -0.669712,-1.443016 -0.697006,-3.499241 0.08545,-4.953535 0.654424,-1.216337 2.053802,-2.126027 3.417942,-2.342521 1.31251,-0.2083 3.824805,1.124943 3.824805,1.124943 l 0.254347,-0.880824 z"
         style="fill:#000000;fill-opacity:1;stroke:none" />
      <path
         sodipodi:nodetypes="sssscssccssscccssasasa"
         inkscape:connector-curvature="0"
         id="path3800"
         d="m 46.125,29.625 c -1.475372,0.427012 -2.704773,1.643598 -3.571023,2.911932 -3.135779,4.591306 -3.585723,7.046048 -3.590909,9.826704 -0.0058,3.093796 1.631452,4.279689 3.005682,4.542614 1.957946,0.374605 4.920455,-3.255682 4.920455,-3.255682 0,0 -0.427953,3.230927 2.028409,3.261364 1.005494,0.01246 2.019257,-0.709435 2.78125,-1.465909 C 52.567307,44.583868 53.6875,42.3125 53.6875,42.3125 l -0.764205,-0.553977 c 0,0 -0.424724,0.73955 -0.770097,1.283543 -0.238385,0.375478 -0.948667,1.607717 -1.442971,1.330093 -0.640087,-0.359502 0.07296,-3.214228 0.860796,-6.224432 0.869811,-3.323409 2.071022,-8.181818 2.071022,-8.181818 L 50.301136,30 49.948863,31.897727 c 0,0 -0.150977,-1.536821 -0.730113,-1.897727 -0.881619,-0.549408 -2.095905,-0.663803 -3.09375,-0.375 z m 1.96875,8.6875 c -0.805983,2.367252 -2.791195,6.703513 -4.596591,5.928977 -1.483032,-0.636238 -0.552551,-5.176382 0.303673,-7.542385 0.795967,-2.199494 2.692937,-6.284119 4.270228,-5.56841 1.526425,0.692628 0.794268,4.915616 0.02269,7.181818 z"
         style="fill:#000000;fill-opacity:1;fill-rule:evenodd;stroke:none" />
      <path
         sodipodi:nodetypes="cc"
         inkscape:connector-curvature="0"
         id="path3813"
         d="m 26.056818,21.284091 c 0.878839,1.201802 1.004364,3.010148 -0.02272,4.465909"
         style="fill:none;stroke:#000000;stroke-width:0.5;stroke-linecap:butt;stroke-linejoin:miter;stroke-miterlimit:4;stroke-opacity:1;stroke-dasharray:none" />
      <path
         sodipodi:nodetypes="cc"
         inkscape:connector-curvature="0"
         id="path3813-1"
         d="m 20.295125,21.335228 c -0.878839,1.201802 -1.004364,3.010148 0.02272,4.465909"
         style="fill:none;stroke:#000000;stroke-width:0.5;stroke-linecap:butt;stroke-linejoin:miter;stroke-miterlimit:4;stroke-opacity:1;stroke-dasharray:none" />
      <path
         style="fill:none;stroke:#000000;stroke-width:0.5;stroke-linecap:butt;stroke-linejoin:miter;stroke-miterlimit:4;stroke-opacity:1;stroke-dasharray:none"
         d="m 18.59058,20.744319 c -1.151566,1.429075 -1.163455,4.169239 -7e-6,5.761363"
         id="path3837"
         inkscape:connector-curvature="0"
         sodipodi:nodetypes="cc" />
      <path
         sodipodi:nodetypes="cc"
         inkscape:connector-curvature="0"
         id="path3839"
         d="m 27.858805,20.653409 c 1.151566,1.429075 1.163455,4.169239 7e-6,5.761363"
         style="fill:none;stroke:#000000;stroke-width:0.5;stroke-linecap:butt;stroke-linejoin:miter;stroke-miterlimit:4;stroke-opacity:1;stroke-dasharray:none" />
      <path
         style="fill:none;stroke:#000000;stroke-width:0.5;stroke-linecap:butt;stroke-linejoin:miter;stroke-miterlimit:4;stroke-opacity:1;stroke-dasharray:none"
         d="m 29.426987,20.153409 c 1.424292,1.997257 1.390727,4.782875 0.06819,6.920454"
         id="path3841"
         inkscape:connector-curvature="0"
         sodipodi:nodetypes="cc" />
      <path
         sodipodi:nodetypes="cc"
         inkscape:connector-curvature="0"
         id="path3843"
         d="m 31.072511,19.482482 c 1.424292,1.997257 1.504363,6.055602 0.181826,8.193181"
         style="fill:none;stroke:#000000;stroke-width:0.5;stroke-linecap:butt;stroke-linejoin:miter;stroke-miterlimit:4;stroke-opacity:1;stroke-dasharray:none" />
      <path
         style="fill:none;stroke:#000000;stroke-width:0.5;stroke-linecap:butt;stroke-linejoin:miter;stroke-miterlimit:4;stroke-opacity:1;stroke-dasharray:none"
         d="m 32.867966,18.891573 c 1.549292,2.906348 1.617999,6.362421 0.02273,9.443181"
         id="path3845"
         inkscape:connector-curvature="0"
         sodipodi:nodetypes="cc" />
    </g>
  </g>
</svg>
